<?xml version="1.0"?>
<svg xmlns="http://www.w3.org/2000/svg" xmlns:xlink="http://www.w3.org/1999/xlink" xmlns:svgjs="http://svgjs.com/svgjs" version="1.1" width="512" height="512" x="0" y="0" viewBox="0 0 464 464" style="enable-background:new 0 0 512 512" xml:space="preserve" class=""><g transform="matrix(-1,2.4492935982947064e-16,2.4492935982947064e-16,1,463.99999999999994,-5.684341886080802e-14)"><script/><path xmlns="http://www.w3.org/2000/svg" d="m224 112c0 61.855469-50.144531 112-112 112s-112-50.144531-112-112 50.144531-112 112-112 112 50.144531 112 112zm0 0" fill="#337eb0" data-original="#337eb0" style=""/><path xmlns="http://www.w3.org/2000/svg" d="m450.511719 240c-57.953125 0-113.53125 23.023438-154.511719 64-44.183594-44.183594-115.816406-44.183594-160 0v-120l17.511719-7.785156c13.535156-6.019532 23.726562-17.703125 27.855469-31.933594 4.125-14.226562 1.769531-29.550781-6.4375-41.882812-9.324219-13.988282-25.023438-22.394532-41.832032-22.398438-22.40625-.003906-42.554687 13.636719-50.875 34.441406l-82.222656 173.558594v72l112 104h352v-224zm0 0" fill="#fec9a3" data-original="#fec9a3" style=""/><path xmlns="http://www.w3.org/2000/svg" d="m0 312v48l112 104h352v-48h-326.863281c-16.152344-.003906-31.703125-6.113281-43.535157-17.105469zm0 0" fill="#fac39b" data-original="#fac39b" style=""/><path xmlns="http://www.w3.org/2000/svg" d="m266.34375 322.34375 24-24 11.3125 11.3125-24 24.003906zm0 0" fill="#f7bb8f" data-original="#f7bb8f" style=""/><path xmlns="http://www.w3.org/2000/svg" d="m40.605469 276.921875 26.683593-64 14.765626 6.160156-26.679688 63.996094zm0 0" fill="#fedac1" data-original="#fedac1" style=""/><path xmlns="http://www.w3.org/2000/svg" d="m73.945312 196.921875 6.671876-16 14.765624 6.15625-6.671874 16zm0 0" fill="#fedac1" data-original="#fedac1" style=""/><path xmlns="http://www.w3.org/2000/svg" d="m464 240h-13.488281c-47.027344.003906-92.796875 15.179688-130.511719 43.273438v180.726562h144zm0 0" fill="#f05d46" data-original="#f05d46" style="" class=""/><path xmlns="http://www.w3.org/2000/svg" d="m464 464h-144v-48s56 4 88-8c20.160156-7.808594 39.035156-18.59375 56-32zm0 0" fill="#e3523b" data-original="#e3523b" style=""/><path xmlns="http://www.w3.org/2000/svg" d="m352 112c0 61.855469-50.144531 112-112 112s-112-50.144531-112-112 50.144531-112 112-112 112 50.144531 112 112zm0 0" fill="#388bc2" data-original="#388bc2" style=""/><path xmlns="http://www.w3.org/2000/svg" d="m312 112c0 39.765625-32.234375 72-72 72s-72-32.234375-72-72 32.234375-72 72-72 72 32.234375 72 72zm0 0" fill="#4398d1" data-original="#4398d1" style=""/><path xmlns="http://www.w3.org/2000/svg" d="m272 112c0 17.671875-14.328125 32-32 32s-32-14.328125-32-32 14.328125-32 32-32 32 14.328125 32 32zm0 0" fill="#cfcfcd" data-original="#cfcfcd" style=""/></g></svg>
