<?xml version="1.0" standalone="no"?>
<!DOCTYPE svg PUBLIC "-//W3C//DTD SVG 20010904//EN"
 "http://www.w3.org/TR/2001/REC-SVG-20010904/DTD/svg10.dtd">
<svg version="1.0" xmlns="http://www.w3.org/2000/svg"
 width="500.000000pt" height="500.000000pt" viewBox="0 0 500.000000 500.000000"
 preserveAspectRatio="xMidYMid meet">

<g transform="translate(0.000000,500.000000) scale(0.100000,-0.100000)"
fill="#000000" stroke="none">
<path d="M2270 4035 c-166 -28 -327 -79 -455 -143 -662 -329 -999 -1066 -816
-1779 115 -446 405 -800 829 -1012 411 -206 957 -200 1372 14 529 274 850 796
850 1385 0 448 -191 872 -524 1163 -232 203 -486 320 -806 373 -104 17 -347
16 -450 -1z m85 -907 c3 -13 4 -88 3 -168 l-3 -145 -60 0 -60 0 -3 145 c-4
193 -5 190 63 190 48 0 55 -3 60 -22z m403 -151 l2 -168 -57 3 -58 3 -3 155
c-1 85 0 160 3 168 3 9 20 12 57 10 l53 -3 3 -168z m-548 -7 l0 -110 -35 0
-35 0 0 103 c0 57 3 107 7 110 3 4 19 7 35 7 l28 0 0 -110z m634 104 c13 -5
16 -25 16 -110 l0 -104 -35 0 -35 0 0 110 c0 102 1 110 19 110 11 0 26 -3 35
-6z m-224 -94 l0 -50 -120 0 -120 0 0 50 0 50 120 0 120 0 0 -50z m-686 -479
c15 -24 -7 -41 -54 -41 -26 0 -52 -6 -58 -12 -16 -20 -23 -80 -14 -113 7 -26
13 -30 43 -30 34 0 34 1 37 48 3 45 5 47 33 47 l29 0 0 -75 c0 -73 -1 -75 -25
-75 -14 0 -25 4 -25 9 0 5 -17 3 -38 -5 -81 -32 -129 26 -119 146 7 88 31 110
122 110 35 0 66 -4 69 -9z m125 -52 l27 -60 26 60 c24 55 29 61 57 61 l30 0
-39 -86 c-27 -59 -40 -100 -40 -130 0 -44 0 -44 -35 -44 -35 0 -35 0 -35 46 0
33 -11 70 -39 130 l-40 84 30 0 c27 0 33 -6 58 -61z m286 9 c8 -29 18 -71 23
-92 l8 -39 18 79 c10 43 23 85 28 92 6 6 25 12 43 12 18 0 37 -6 43 -12 5 -7
12 -66 14 -130 l4 -118 -27 0 -27 0 -8 103 -8 102 -19 -83 c-17 -72 -22 -83
-45 -89 -41 -10 -56 9 -78 98 l-22 84 -1 -85 c-2 -112 -7 -130 -38 -130 l-25
0 4 118 c2 64 7 123 11 130 5 6 26 12 47 12 39 0 40 -1 55 -52z m402 37 c31
-22 46 -78 40 -143 -9 -89 -39 -108 -164 -103 l-43 1 0 130 0 130 73 0 c48 0
80 -5 94 -15z m265 9 c3 -3 4 -14 1 -25 -4 -16 -14 -19 -59 -19 -51 0 -54 -2
-54 -24 0 -23 5 -25 48 -28 40 -3 47 -6 50 -25 3 -21 0 -23 -47 -23 -50 0 -51
-1 -51 -30 0 -30 1 -30 54 -30 45 0 55 -3 59 -19 3 -11 2 -22 -1 -25 -11 -11
-148 -6 -160 6 -8 8 -12 48 -12 114 0 128 5 134 99 134 37 0 70 -3 73 -6z
m223 -19 c30 -29 32 -64 5 -97 -12 -16 -16 -28 -10 -34 5 -5 16 -31 24 -57
l14 -47 -32 0 c-30 0 -34 4 -47 48 -12 40 -18 47 -41 50 -27 3 -28 2 -28 -47
0 -50 -1 -51 -30 -51 l-30 0 0 130 0 130 75 0 c67 0 79 -3 100 -25z m-1291
-512 c14 -26 15 -27 16 -5 0 12 5 22 11 22 13 0 7 -62 -7 -67 -6 -2 -16 7 -22
19 l-11 23 0 -22 c-1 -37 -21 -26 -21 10 0 29 6 47 16 47 2 0 10 -12 18 -27z
m91 17 c3 -5 -1 -10 -9 -10 -22 0 -20 -20 2 -21 16 -1 16 -2 0 -6 -10 -2 -18
-8 -18 -13 0 -5 8 -11 18 -13 13 -4 11 -5 -5 -6 -20 -1 -23 4 -23 32 0 43 19
63 35 37z m140 0 c3 -5 -1 -10 -9 -10 -22 0 -20 -20 2 -21 16 -1 16 -2 0 -6
-10 -2 -18 -8 -18 -13 0 -5 8 -11 18 -14 10 -3 6 -4 -8 -3 -18 1 -26 9 -28 25
-5 35 27 67 43 42z m76 -33 c3 -20 2 -37 -3 -37 -4 0 -8 7 -8 15 0 8 -4 15
-10 15 -5 0 -10 -7 -10 -15 0 -8 -4 -15 -10 -15 -11 0 -14 63 -3 74 17 16 38
-1 44 -37z m111 16 c11 -27 12 -27 15 -5 3 12 8 22 13 22 5 0 4 -15 -1 -32 -5
-18 -9 -34 -9 -35 0 -2 -4 -3 -8 -3 -5 0 -13 12 -19 28 l-11 27 -1 -27 c-1
-28 -31 -42 -31 -15 0 6 -3 23 -7 36 -4 17 -3 22 5 17 7 -4 12 -17 13 -29 1
-16 3 -14 10 11 12 39 16 40 31 5z m96 18 c8 -5 12 -21 10 -37 -2 -23 -8 -29
-28 -29 -18 0 -26 6 -28 23 -3 22 13 52 27 52 3 0 12 -4 19 -9z m83 -34 c3
-20 2 -37 -3 -37 -4 0 -8 7 -8 15 0 8 -4 15 -10 15 -5 0 -10 -7 -10 -15 0 -8
-4 -15 -10 -15 -11 0 -14 63 -3 74 17 16 38 -1 44 -37z m66 31 c11 -18 12 -68
2 -68 -5 0 -9 7 -9 15 0 8 -4 15 -10 15 -5 0 -10 -7 -10 -15 0 -8 -4 -15 -10
-15 -11 0 -14 63 -3 73 10 11 31 8 40 -5z m181 -35 c10 -30 0 -49 -11 -20 -3
9 -9 9 -26 -1 -25 -15 -26 -12 -6 35 17 40 26 37 43 -14z m56 41 c10 -4 16
-18 16 -40 0 -30 -3 -34 -25 -34 -22 0 -25 4 -25 33 0 44 7 52 34 41z m84 -3
c8 -5 12 -21 10 -37 -2 -23 -8 -29 -28 -29 -18 0 -26 6 -28 23 -3 22 13 52 27
52 3 0 12 -4 19 -9z m162 -1 c0 -5 -4 -10 -10 -10 -5 0 -11 -15 -12 -32 l-1
-33 -4 33 c-2 17 -8 32 -14 32 -5 0 -9 5 -9 10 0 6 11 10 25 10 14 0 25 -4 25
-10z m-995 -27 c4 15 11 27 15 27 5 0 3 -16 -3 -35 -12 -42 -24 -44 -37 -9
-15 38 -10 54 5 19 l13 -30 7 28z m559 15 c5 -10 7 -10 12 0 13 27 20 10 10
-23 -6 -19 -13 -35 -16 -35 -3 0 -10 16 -16 35 -10 33 -3 50 10 23z m332 -48
c9 0 14 11 14 30 0 17 5 30 10 30 6 0 10 -10 10 -22 -1 -58 -53 -67 -57 -10
-3 32 -3 32 3 2 3 -17 12 -30 20 -30z m-1121 -60 c3 -5 -1 -10 -9 -10 -22 0
-20 -20 2 -21 15 -1 15 -2 0 -6 -9 -2 -19 -12 -21 -21 -3 -9 -5 -1 -6 19 -1
45 17 66 34 39z m95 -29 c0 -13 -2 -14 -9 -2 -7 11 -10 7 -14 -15 -3 -22 -4
-18 -6 15 -1 38 1 42 14 31 8 -7 15 -20 15 -29z m100 25 c20 -26 8 -61 -22
-64 -26 -3 -28 -1 -28 31 0 48 24 64 50 33z m190 4 c0 -5 -7 -10 -15 -10 -9 0
-15 -9 -15 -25 0 -29 15 -33 29 -7 9 15 10 14 11 -6 0 -20 -4 -23 -27 -20 -31
3 -43 38 -23 64 14 16 40 19 40 4z m108 -37 c7 -20 7 -33 1 -33 -5 0 -9 5 -9
10 0 6 -7 10 -15 10 -8 0 -15 -4 -15 -10 0 -5 -4 -10 -10 -10 -5 0 -7 6 -5 13
28 78 33 80 53 20z m102 37 c0 -5 -7 -10 -15 -10 -9 0 -15 -9 -15 -25 0 -29
15 -33 29 -7 9 15 10 14 11 -6 0 -20 -4 -23 -27 -20 -31 3 -43 38 -23 64 14
16 40 19 40 4z m131 -34 c0 -6 4 -1 9 12 14 34 30 26 29 -15 -1 -38 -1 -38 -9
-8 -6 24 -8 26 -9 8 -1 -27 -27 -31 -34 -5 -4 13 -5 11 -6 -5 0 -13 -5 -23
-11 -23 -11 0 -13 24 -3 59 6 23 7 23 20 6 7 -11 13 -24 14 -29z m133 38 c23
-9 20 -44 -3 -44 -11 0 -22 -8 -24 -17 -3 -10 -5 1 -6 25 -1 42 4 47 33 36z
m84 -41 c10 -30 0 -49 -11 -20 -3 9 -9 9 -26 -1 -25 -15 -26 -12 -6 35 17 40
26 37 43 -14z m69 2 c2 -31 0 -36 -8 -22 -5 9 -14 17 -19 17 -5 0 -11 -8 -13
-17 -3 -10 -5 -2 -6 18 -1 40 6 51 29 47 10 -2 16 -16 17 -43z m73 35 c0 -5
-4 -10 -10 -10 -5 0 -11 -15 -12 -32 l-1 -33 -4 33 c-2 17 -8 32 -14 32 -5 0
-9 5 -9 10 0 6 11 10 25 10 14 0 25 -4 25 -10z m145 0 c3 -5 -1 -10 -9 -10
-22 0 -20 -20 2 -21 16 -1 16 -2 0 -6 -10 -2 -18 -8 -18 -13 0 -5 8 -11 18
-14 10 -3 6 -4 -8 -3 -18 1 -26 9 -28 25 -5 35 27 67 43 42z m76 -33 c3 -20 2
-37 -3 -37 -4 0 -8 7 -8 15 0 8 -4 15 -10 15 -5 0 -10 -7 -10 -15 0 -8 -4 -15
-10 -15 -11 0 -14 63 -3 74 17 16 38 -1 44 -37z m-1261 -2 c0 -19 -4 -35 -10
-35 -5 0 -10 16 -10 35 0 19 5 35 10 35 6 0 10 -16 10 -35z m80 -1 c0 -24 -4
-34 -12 -31 -7 2 -13 9 -12 15 1 7 2 21 3 32 2 35 21 21 21 -16z m107 -16 c-2
-13 -4 -5 -4 17 -1 22 1 32 4 23 2 -10 2 -28 0 -40z m49 30 c-3 -13 -6 -29 -6
-35 0 -7 -4 -13 -10 -13 -5 0 -10 16 -10 35 0 26 4 35 16 35 12 0 15 -6 10
-22z m29 -46 c-7 -7 -25 17 -25 33 0 6 5 3 10 -5 8 -12 10 -8 11 15 2 30 2 30
6 -3 3 -19 2 -37 -2 -40z m329 56 c5 -10 7 -10 12 0 13 27 20 10 10 -23 -6
-19 -13 -35 -16 -35 -3 0 -10 16 -16 35 -10 33 -3 50 10 23z m492 -10 c-3 -13
-6 -29 -6 -35 0 -7 -4 -13 -10 -13 -5 0 -10 16 -10 35 0 26 4 35 16 35 12 0
15 -6 10 -22z m29 -46 c-7 -7 -25 17 -25 33 0 6 5 3 10 -5 8 -12 10 -8 11 15
2 30 2 30 6 -3 3 -19 2 -37 -2 -40z m-800 -52 c3 -5 -1 -10 -9 -10 -22 0 -20
-20 2 -21 16 -1 16 -2 0 -6 -10 -2 -18 -8 -18 -13 0 -5 8 -11 18 -13 13 -4 11
-5 -5 -6 -20 -1 -23 4 -23 32 0 43 19 63 35 37z m75 -34 c-6 -20 -15 -36 -20
-36 -10 0 -32 61 -25 69 3 3 8 -5 12 -17 7 -30 19 -28 27 4 4 15 9 24 12 21 4
-3 1 -22 -6 -41z m65 34 c3 -5 -1 -10 -9 -10 -22 0 -20 -20 2 -21 16 -1 16 -2
0 -6 -10 -2 -18 -8 -18 -13 0 -5 8 -11 18 -14 10 -3 6 -4 -8 -3 -18 1 -26 9
-28 25 -5 35 27 67 43 42z m76 -33 c3 -20 2 -37 -3 -37 -4 0 -8 7 -8 15 0 8
-4 15 -10 15 -5 0 -10 -7 -10 -15 0 -8 -4 -15 -10 -15 -11 0 -14 63 -3 74 17
16 38 -1 44 -37z m107 -4 c10 -30 0 -49 -11 -20 -3 9 -9 9 -26 -1 -25 -15 -26
-12 -6 35 17 40 26 37 43 -14z m72 37 c0 -5 -9 -10 -20 -10 -15 0 -20 -7 -20
-25 0 -29 26 -35 33 -7 3 12 5 11 6 -6 1 -19 -3 -23 -21 -20 -43 6 -34 77 10
78 6 0 12 -4 12 -10z m70 -26 c13 -33 13 -54 0 -34 -8 12 -13 13 -30 2 -11 -7
-20 -8 -20 -3 0 20 20 61 30 61 6 0 15 -12 20 -26z m37 -26 c-2 -13 -4 -5 -4
17 -1 22 1 32 4 23 2 -10 2 -28 0 -40z m49 30 c-3 -13 -6 -29 -6 -35 0 -7 -4
-13 -10 -13 -5 0 -10 16 -10 35 0 26 4 35 16 35 12 0 15 -6 10 -22z m29 -46
c-7 -7 -25 17 -25 33 0 6 5 3 10 -5 8 -12 10 -8 11 15 2 30 2 30 6 -3 3 -19 2
-37 -2 -40z"/>
<path d="M2640 2375 c0 -82 1 -85 23 -85 45 0 60 22 60 87 0 74 -5 83 -49 83
l-34 0 0 -85z"/>
<path d="M3120 2430 c0 -27 3 -30 34 -30 21 0 36 6 40 15 10 28 -5 45 -40 45
-31 0 -34 -3 -34 -30z"/>
<path d="M2220 1970 c0 -5 5 -10 10 -10 6 0 10 5 10 10 0 6 -4 10 -10 10 -5 0
-10 -4 -10 -10z"/>
<path d="M2423 1964 c-7 -18 11 -39 26 -30 17 11 13 46 -4 46 -9 0 -18 -7 -22
-16z"/>
<path d="M2510 1970 c0 -5 5 -10 10 -10 6 0 10 5 10 10 0 6 -4 10 -10 10 -5 0
-10 -4 -10 -10z"/>
<path d="M2580 1970 c0 -5 5 -10 10 -10 6 0 10 5 10 10 0 6 -4 10 -10 10 -5 0
-10 -4 -10 -10z"/>
<path d="M2756 1965 c-3 -8 -1 -15 4 -15 6 0 10 7 10 15 0 8 -2 15 -4 15 -2 0
-6 -7 -10 -15z"/>
<path d="M2820 1970 c0 -5 4 -10 9 -10 6 0 13 5 16 10 3 6 -1 10 -9 10 -9 0
-16 -4 -16 -10z"/>
<path d="M2820 1940 c0 -5 7 -10 15 -10 8 0 15 5 15 10 0 6 -7 10 -15 10 -8 0
-15 -4 -15 -10z"/>
<path d="M2893 1964 c-7 -18 11 -39 26 -30 17 11 13 46 -4 46 -9 0 -18 -7 -22
-16z"/>
<path d="M2020 1835 c0 -16 6 -25 15 -25 9 0 15 9 15 25 0 16 -6 25 -15 25 -9
0 -15 -9 -15 -25z"/>
<path d="M2331 1844 c0 -11 3 -14 6 -6 3 7 2 16 -1 19 -3 4 -6 -2 -5 -13z"/>
<path d="M2700 1850 c0 -5 7 -10 15 -10 8 0 15 5 15 10 0 6 -7 10 -15 10 -8 0
-15 -4 -15 -10z"/>
<path d="M2776 1845 c-3 -8 -1 -15 4 -15 6 0 10 7 10 15 0 8 -2 15 -4 15 -2 0
-6 -7 -10 -15z"/>
<path d="M2840 1850 c0 -5 7 -10 15 -10 8 0 15 5 15 10 0 6 -7 10 -15 10 -8 0
-15 -4 -15 -10z"/>
<path d="M3140 1850 c0 -5 5 -10 10 -10 6 0 10 5 10 10 0 6 -4 10 -10 10 -5 0
-10 -4 -10 -10z"/>
<path d="M2410 1730 c0 -5 5 -10 10 -10 6 0 10 5 10 10 0 6 -4 10 -10 10 -5 0
-10 -4 -10 -10z"/>
<path d="M2516 1725 c-3 -8 -1 -15 4 -15 6 0 10 7 10 15 0 8 -2 15 -4 15 -2 0
-6 -7 -10 -15z"/>
<path d="M2660 1720 c0 -5 5 -10 10 -10 6 0 10 5 10 10 0 6 -4 10 -10 10 -5 0
-10 -4 -10 -10z"/>
</g>
</svg>
